<?xml version="1.0" encoding="utf-8"?>
<!-- Generator: Adobe Illustrator 26.5.0, SVG Export Plug-In . SVG Version: 6.00 Build 0)  -->
<svg version="1.1" id="Layer_1" xmlns="http://www.w3.org/2000/svg" xmlns:xlink="http://www.w3.org/1999/xlink" x="0px" y="0px"
	 viewBox="0 0 500 500" style="enable-background:new 0 0 500 500;" xml:space="preserve">
<style type="text/css">
	.st0{fill:#34373A;}
	.st1{fill:#191919;}
</style>
<polygon class="st0" points="213.6,20 200,20 200,22 202,22 211.6,22 200,33.6 200,35 201.4,35 213,23.4 213,33 213,35 215,35 
	215,21.4 215,20 "/>
<g>
	<path class="st1" d="M38.8,117.2v0.1h-4v-0.1l0.7-1.6v-5.1c0-2.4-1.1-3.2-2.5-3.2c-0.9,0-1.9,0.4-2.5,1c0.1,0.6,0.2,1.2,0.2,1.8
		v5.4l0.7,1.6v0.1h-4v-0.1l0.7-1.6v-5.1c0-2.4-1-3.2-2.4-3.2c-0.9,0-2,0.4-2.6,1.1v7.2l0.7,1.6v0.1h-4v-0.1l0.7-1.6V108l-0.7-1.6
		v-0.1l3.1-0.9l0.1,0.1v2.2c0.9-1.6,2.4-2.3,3.7-2.3c1.8,0,2.9,0.9,3.4,2.4c0.8-1.7,2.5-2.4,3.8-2.4c2.8,0,3.9,2,3.9,4.8v5.4
		L38.8,117.2z"/>
	<path class="st1" d="M40,111.4c0-3.6,2.2-5.9,5.8-5.9c3.5,0,5.8,2.5,5.8,6.1c0,3.6-2.3,5.9-5.8,5.9C42.3,117.5,40,115.1,40,111.4z
		 M49.1,112.6c0-3.2-1.9-6.2-4-6.2c-1.6,0-2.5,1.5-2.5,4c0,3.2,1.9,6.2,4,6.2C48.1,116.6,49.1,115.1,49.1,112.6z"/>
	<path class="st1" d="M52.9,111.4c0-3.6,2.2-5.9,5.8-5.9c3.5,0,5.8,2.5,5.8,6.1c0,3.6-2.3,5.9-5.8,5.9
		C55.2,117.5,52.9,115.1,52.9,111.4z M61.9,112.6c0-3.2-1.9-6.2-4-6.2c-1.6,0-2.5,1.5-2.5,4c0,3.2,1.9,6.2,4,6.2
		C61,116.6,61.9,115.1,61.9,112.6z"/>
	<path class="st1" d="M77.6,117.2v0.1h-4v-0.1l0.7-1.6v-5.1c0-2.4-1.1-3.2-2.5-3.2c-0.9,0-2,0.4-2.6,1.1v7.2l0.7,1.6v0.1h-4v-0.1
		l0.7-1.6V108l-0.7-1.6v-0.1l3.1-0.9l0.1,0.1v2.2c0.9-1.6,2.4-2.3,3.7-2.3c2.8,0,3.9,2,3.9,4.8v5.4L77.6,117.2z"/>
	<path class="st1" d="M79.3,117.2l0.7-1.6v-12.8l-0.7-1.6v-0.1l3.1-0.9l0.1,0.1v15.5l0.7,1.6v0.1h-4V117.2z"/>
	<path class="st1" d="M85,117.2l0.7-1.6V108l-0.7-1.6v-0.1l3.1-0.9l0.1,0.1v10.1l0.7,1.6v0.1h-4V117.2z M85.1,101.6
		c0-0.9,0.7-1.6,1.6-1.6c1,0,1.7,0.7,1.7,1.6s-0.7,1.5-1.7,1.5C85.9,103.1,85.1,102.4,85.1,101.6z"/>
	<path class="st1" d="M101.6,117.6c0,2.6-3.4,4.5-7.5,4.5c-2.9,0-4.3-1.2-4.3-2.8c0-1.3,1.1-2.5,2.9-3c-0.5-0.4-0.8-0.9-0.8-1.5
		c0-0.9,0.8-1.7,1.8-2c-2-0.4-3.2-1.6-3.2-3.4c0-2.2,2.2-4,5-4c1.1,0,2,0.2,2.8,0.5l3.4-0.6l0.1,0.1l-0.5,1.9l-1.7-0.3
		c0.4,0.5,0.7,1.3,0.7,2.1c0,2.2-2.1,3.9-5,3.9c-0.3,0-0.6,0-0.8,0c-0.3,0.2-0.4,0.5-0.4,0.9c0,0.5,0.3,0.8,1.3,1l2.8,0.4
		C100.5,115.5,101.6,116.3,101.6,117.6z M99.2,118.7c0-0.7-0.6-1.2-2-1.4l-3.2-0.5c-0.3,0-0.5-0.1-0.8-0.2c-0.5,0.5-0.9,1.2-0.9,2
		c0,1.6,1.3,2.5,3.2,2.5C97.7,121.2,99.2,120.1,99.2,118.7z M93,108.8c0,1.8,1.2,3.3,2.7,3.3c1.2,0,2.1-1,2.1-2.4
		c0-1.9-1.2-3.4-2.7-3.4C94,106.3,93,107.3,93,108.8z"/>
	<path class="st1" d="M114.6,117.2v0.1h-4v-0.1l0.7-1.6v-5.1c0-2.4-1.1-3.2-2.5-3.2c-0.9,0-2,0.4-2.6,1.1v7.2l0.7,1.6v0.1h-4v-0.1
		l0.7-1.6v-12.8l-0.7-1.6v-0.1l3.1-0.9l0.1,0.1v7.5c0.9-1.6,2.4-2.3,3.7-2.3c2.8,0,3.9,2,3.9,4.8v5.4L114.6,117.2z"/>
	<path class="st1" d="M123.3,115l0.1,0.1c-0.6,1.7-1.7,2.4-3.1,2.4c-2,0-3.2-1.4-3.2-4.1v-6h-1.8l-0.1-0.1c0.8-1.5,2.3-2.9,4.2-3.7
		l0.1,0.1v2.9l3.9-1.4l0.1,0.1l-0.4,2.1l-3.6-0.1v5.4c0,2.1,0.6,2.9,1.8,2.9C122,115.7,122.6,115.5,123.3,115z"/>
</g>
<g>
	<path class="st1" d="M35.4,34.1v0.1h-3.3v-0.1l0.6-1.3v-4.2c0-2-0.9-2.6-2.1-2.6c-0.7,0-1.5,0.3-2.1,0.8c0.1,0.5,0.2,1,0.2,1.5v4.4
		l0.6,1.3v0.1h-3.3v-0.1l0.6-1.3v-4.2c0-2-0.8-2.6-2-2.6c-0.7,0-1.6,0.4-2.1,0.9v5.9l0.6,1.3v0.1H20v-0.1l0.6-1.3v-6.2L20,25.2v-0.1
		l2.5-0.8l0.1,0.1v1.8c0.7-1.3,2-1.9,3-1.9c1.5,0,2.4,0.8,2.8,2c0.7-1.4,2-2,3.1-2c2.3,0,3.2,1.7,3.2,3.9v4.4L35.4,34.1z"/>
	<path class="st1" d="M36.4,29.3c0-3,1.8-4.9,4.7-4.9c2.9,0,4.8,2,4.8,5c0,3-1.9,4.9-4.7,4.9C38.3,34.3,36.4,32.4,36.4,29.3z
		 M43.8,30.3c0-2.6-1.5-5.1-3.2-5.1c-1.3,0-2.1,1.2-2.1,3.3c0,2.6,1.6,5.1,3.3,5.1C43,33.6,43.8,32.3,43.8,30.3z"/>
	<path class="st1" d="M46.9,29.3c0-3,1.8-4.9,4.7-4.9c2.9,0,4.8,2,4.8,5c0,3-1.9,4.9-4.7,4.9C48.8,34.3,46.9,32.4,46.9,29.3z
		 M54.3,30.3c0-2.6-1.5-5.1-3.2-5.1c-1.3,0-2.1,1.2-2.1,3.3c0,2.6,1.6,5.1,3.3,5.1C53.6,33.6,54.3,32.3,54.3,30.3z"/>
	<path class="st1" d="M67.2,34.1v0.1h-3.3v-0.1l0.6-1.3v-4.2c0-2-0.9-2.6-2.1-2.6c-0.7,0-1.6,0.4-2.1,0.9v5.9l0.6,1.3v0.1h-3.3v-0.1
		l0.6-1.3v-6.2l-0.6-1.3v-0.1l2.5-0.8l0.1,0.1v1.8c0.7-1.3,2-1.9,3.1-1.9c2.3,0,3.2,1.7,3.2,3.9v4.4L67.2,34.1z"/>
	<path class="st1" d="M68.6,34.1l0.6-1.3V22.2l-0.6-1.3v-0.1l2.5-0.8l0.1,0.1v12.7l0.6,1.3v0.1h-3.3V34.1z"/>
	<path class="st1" d="M73.2,34.1l0.6-1.3v-6.2l-0.6-1.3v-0.1l2.5-0.8l0.1,0.1v8.3l0.6,1.3v0.1h-3.3V34.1z M73.4,21.3
		c0-0.7,0.6-1.3,1.3-1.3c0.8,0,1.4,0.6,1.4,1.3c0,0.7-0.6,1.3-1.4,1.3C73.9,22.5,73.4,22,73.4,21.3z"/>
	<path class="st1" d="M86.9,34.4c0,2.1-2.8,3.7-6.2,3.7c-2.4,0-3.5-1-3.5-2.3c0-1.1,0.9-2,2.3-2.5c-0.4-0.3-0.6-0.7-0.6-1.2
		c0-0.7,0.6-1.4,1.5-1.7c-1.7-0.3-2.6-1.3-2.6-2.8c0-1.8,1.8-3.2,4.1-3.2c0.9,0,1.7,0.1,2.3,0.4l2.8-0.5l0.1,0.1L86.7,26l-1.4-0.3
		c0.3,0.4,0.6,1,0.6,1.7c0,1.8-1.8,3.2-4.1,3.2c-0.2,0-0.5,0-0.7,0c-0.2,0.2-0.3,0.4-0.3,0.7c0,0.4,0.3,0.7,1.1,0.8l2.3,0.3
		C85.9,32.7,86.9,33.4,86.9,34.4z M84.8,35.3c0-0.6-0.5-1-1.6-1.2l-2.6-0.4c-0.2,0-0.4-0.1-0.6-0.2c-0.4,0.4-0.8,1-0.8,1.6
		c0,1.3,1,2.1,2.6,2.1C83.6,37.3,84.8,36.5,84.8,35.3z M79.8,27.2c0,1.5,1,2.7,2.2,2.7c1,0,1.7-0.8,1.7-2c0-1.5-1-2.8-2.2-2.8
		C80.6,25.2,79.8,26,79.8,27.2z"/>
	<path class="st1" d="M97.5,34.1v0.1h-3.3v-0.1l0.6-1.3v-4.2c0-2-0.9-2.6-2.1-2.6c-0.7,0-1.6,0.4-2.1,0.9v5.9l0.6,1.3v0.1H88v-0.1
		l0.6-1.3V22.2L88,20.9v-0.1l2.5-0.8l0.1,0.1v6.2c0.7-1.3,2-1.9,3.1-1.9c2.3,0,3.2,1.7,3.2,3.9v4.4L97.5,34.1z"/>
	<path class="st1" d="M104.6,32.3l0.1,0.1c-0.5,1.4-1.4,2-2.6,2c-1.7,0-2.6-1.1-2.6-3.3v-4.9H98L97.9,26c0.7-1.2,1.9-2.3,3.5-3
		l0.1,0.1v2.4l3.2-1.1l0.1,0.1l-0.3,1.7l-3-0.1v4.4c0,1.7,0.5,2.4,1.5,2.4C103.6,32.9,104,32.7,104.6,32.3z"/>
</g>
</svg>
